<svg width="227" height="227" viewBox="0 0 227 227" fill="none" xmlns="http://www.w3.org/2000/svg">
<circle cx="113.5" cy="113.5" r="108.5" stroke="#9CA2A7" stroke-width="10"/>
<path d="M159.474 34.8234C170.267 43.4024 181.467 56.5584 182.723 70.2407C182.729 71.6982 182.65 73.1557 182.549 74.6102C183.208 74.6472 183.866 74.6841 184.545 74.7221C188.64 75.8504 191.439 77.8282 194.16 80.8744C195.078 83.4239 195.047 85.784 194.958 88.4528C194.957 89.1674 194.957 89.882 194.957 90.6182C194.948 92.1225 194.924 93.6268 194.884 95.1307C194.826 97.4235 194.824 99.7119 194.831 102.005C194.816 103.472 194.798 104.939 194.776 106.406C194.775 107.086 194.774 107.766 194.772 108.466C194.619 113.054 193.505 115.686 190.29 119.354C187.602 121.218 186.182 121.144 182.731 121.144C179.778 121.412 178.905 121.801 176.91 123.895C175.771 125.482 174.65 127.082 173.546 128.691C165.983 139.279 151.631 142.594 139.008 145.305C139.666 145.481 140.325 145.656 141.003 145.837C153.853 149.503 165.816 154.736 175.776 163.203C176.481 163.793 177.185 164.384 177.912 164.992C182 168.584 186.297 172.57 188.355 177.521C188.27 180.3 187.344 181.142 185.229 183.156C171.211 193.911 155.998 200.905 138.04 204.367C137.303 204.518 136.566 204.67 135.807 204.826C108.156 210.08 77.7902 205.835 53.8599 191.839C48.2142 188.149 42.7978 184.209 37.4109 180.205C38.2204 174.794 41.3925 171.718 45.1516 167.677C45.6991 167.084 46.2467 166.491 46.8109 165.88C57.6792 155.015 72.2959 148.421 87.6461 144.928C89.634 144.582 89.634 144.582 90.6283 143.515C89.9248 143.074 89.9248 143.074 89.2071 142.624C80.2003 136.713 73.9761 129.956 70.3089 120.249C69.9331 119.342 69.9331 119.342 69.5497 118.416C66.6599 110.394 66.8999 102.173 66.9214 93.8122C66.9223 91.2296 66.8819 88.6493 66.8392 86.0671C66.7471 73.1314 68.6314 63.7788 78.7148 54.1925C89.6685 44.6267 101.955 40.8549 116.863 41.1399C129.329 41.779 141.223 47.7086 149.734 55.9927C156.308 63.3548 158.962 70.2332 158.839 79.7383C158.841 80.6278 158.842 81.5174 158.844 82.4339C158.842 84.3012 158.831 86.1685 158.811 88.0357C158.783 90.8872 158.791 93.7372 158.804 96.5888C158.798 98.4106 158.789 100.232 158.779 102.054C158.782 102.902 158.785 103.749 158.788 104.622C158.704 110.04 157.918 113.952 154.032 118.242C148.835 122.375 142.833 125.752 135.803 125.506C133.202 124.723 133.202 124.723 130.965 123.772C127.152 122.542 123.642 122.3 119.656 122.933C116.704 124.716 115.211 125.919 114.361 129.142C114.086 132.582 114.628 134.285 116.632 137.251C120.984 139.827 124.298 139.86 129.332 139.041C132.275 138.096 135.062 136.983 137.893 135.78C141.049 134.525 144.163 133.672 147.474 132.833C155.613 130.591 161.186 126.687 166.1 120.249C169.783 113.655 171.096 108.236 171.169 100.813C171.18 99.6673 171.18 99.6673 171.192 98.4982C171.206 96.8795 171.216 95.2608 171.224 93.642C171.235 92.0037 171.255 90.3654 171.283 88.7272C171.449 79.2445 171.408 70.8887 167.068 62.082C166.603 61.1084 166.137 60.1348 165.658 59.1317C157.788 45.9599 145.755 37.467 130.201 32.8413C114.539 29.1827 96.8696 31.1677 82.7439 38.1651C69.9763 45.3147 61.145 55.4461 56.7114 68.7095C55.3811 73.7865 55.4514 78.8913 55.3944 84.0903C55.3757 85.1528 55.3569 86.2152 55.3376 87.3099C55.2801 90.683 55.235 94.0562 55.1903 97.4295C55.1534 99.725 55.1156 102.02 55.0769 104.316C54.9843 109.925 54.9019 115.534 54.8275 121.144C52.4961 121.213 50.1672 121.264 47.8351 121.304C46.85 121.337 46.85 121.337 45.8449 121.37C41.7136 121.423 39.252 121.064 36.0804 118.571C30.9856 113.569 32.2843 106.857 32.2342 100.381C32.2182 98.8669 32.1918 97.3533 32.1548 95.8399C32.1016 93.6522 32.0806 91.4659 32.0665 89.2778C32.0445 88.6064 32.0226 87.9351 32 87.2434C32.0153 83.6923 32.5026 81.4159 34.8951 78.6922C38.076 75.794 39.72 74.6102 44.184 74.6102C44.2339 73.9366 44.2838 73.2629 44.3352 72.5688C45.7326 60.4675 51.8296 49.6079 60.633 40.6051C61.1456 40.0594 61.6583 39.5138 62.1864 38.9517C86.6037 14.5456 132.517 14.3025 159.474 34.8234Z" fill="#9CA2A7"/>
</svg>
